<svg xmlns="http://www.w3.org/2000/svg" viewBox="0 14.100000381469727 185.75 41" data-asc="0.92" width="185.75" height="41">
  <defs>
    <linearGradient id="bluePinkGradient" x1="0%" y1="30%" x2="100%" y2="20%">
      <stop offset="0%" stop-color="rgba(86, 33, 243, 1)"/>
      <stop offset="10%" stop-color="rgba(198, 109, 254, 1)"/>
      <stop offset="80%" stop-color="rgba(90, 0, 208, 1)"/>
    </linearGradient>
  </defs>
  <g>
    <g fill="url(#bluePinkGradient)">
      <g transform="translate(0, 0)">
        <path d="M0 46.55L0 18.40L4.40 18.40L4.40 14.10L19.60 14.10L19.60 18.40L24.05 18.40L24.05 33.70L19.60 33.70L19.60 38L6.35 38L6.35 46.55L0 46.55M6.35 31.15L17.65 31.15L17.65 20.95L6.35 20.95L6.35 31.15ZM33.05 46.55L33.05 42.30L28.65 42.30L28.65 26.95L33.05 26.95L33.05 22.65L48.25 22.65L48.25 26.95L52.70 26.95L52.70 42.30L48.25 42.30L48.25 46.55L33.05 46.55M35 39.75L46.30 39.75L46.30 29.45L35 29.45L35 39.75ZM58.80 46.55L58.80 14.10L65.15 14.10L65.15 46.55L58.80 46.55ZM75.65 55.10L75.65 50.85L71.25 50.85L71.25 44.05L77.60 44.05L77.60 48.30L88.95 48.30L88.95 42.30L75.65 42.30L75.65 38L71.25 38L71.25 22.65L77.60 22.65L77.60 35.45L88.95 35.45L88.95 22.65L95.30 22.65L95.30 50.85L90.90 50.85L90.90 55.10L75.65 55.10ZM101.40 46.55L101.40 18.40L105.80 18.40L105.80 14.10L121.00 14.10L121.00 18.40L125.45 18.40L125.45 33.70L121.00 33.70L121.00 38L118.85 38L118.85 39.75L123.20 39.75L123.20 46.55L116.90 46.55L116.90 42.30L112.40 42.30L112.40 38L107.75 38L107.10075 46.55L101.40 46.55M107.75 31.15L119.05 31.15L119.05 20.95L107.75 20.95L107.75 31.15ZM131.55 46.55L131.55 22.65L135.95 22.65L135.95 18.40L140.35 18.40L140.35 14.10L146.75 14.10L146.75 18.40L151.15 18.40L151.15 22.65L155.60 22.65L155.60 46.55L149.20 46.55L149.20 38L137.90 38L137.90 46.55L131.55 46.55M137.90 31.15L149.20 31.15L149.20 25.20L144.80 25.20L144.80 20.95L142.30 20.95L142.30 25.20L137.90 25.20L137.90 31.15ZM166.10 46.55L166.10 42.30L161.70 42.30L161.70 18.40L166.10 18.40L166.10 14.10L181.30 14.10L181.30 18.40L185.75 18.40L185.75 29.45L179.35 29.45L179.35 20.95L168.05 20.95L168.05 39.75L179.35 39.75L179.35 38L174.95 38L174.95 33.70L170.50 33.70L170.50 26.95L176.90 26.95L176.90 31.15L185.75 31.15L185.75 42.30L181.30 42.30L181.30 46.55L166.10 46.55Z"/>
      </g>
      <g transform="translate(0, 60.16)">
        <path d=""/>
      </g>
    </g>
  </g>
</svg>
